<?xml version="1.0" encoding="UTF-8"?>
<svg id="Layer_2" data-name="Layer 2" xmlns="http://www.w3.org/2000/svg" viewBox="0 0 264.75 264.72">
  <defs>
    <style>
      .cls-1 {
        fill: #f7941d;
        stroke-width: 0px;
      }
    </style>
  </defs>
  <g id="Layer_1-2" data-name="Layer 1">
    <path class="cls-1" d="m97.76,5.1c6.58-1.46,24.33-.72,39.11,3.32,20.54,5.63,35.57,15.07,35.57,15.07-29.39-12.85-87.23-6.63-82.73-6.85,29.71-1.44,69.99,17.18,63.55,15.37-38.86-10.92-77.17-3.61-72.15-3.56,28.37.27,52.09,13.07,52.09,13.07-27.38-6.84-51.09-4.34-64.14.88,4.89-.58,9.86-.88,14.91-.88,69.4,0,125.66,56.26,125.66,125.65,0,35.68-14.88,67.9-38.77,90.78,54.31-16.26,93.89-66.61,93.89-126.22C264.75,58.98,205.78,0,133.03,0c-12.29,0-24.19,1.68-35.47,4.84.12.16.21.26.21.26Z"/>
    <path class="cls-1" d="m183.98,235.94c-28.37-.27-52.08-13.07-52.08-13.07,27.38,6.84,51.09,4.35,64.13-.89-.11.01-.23.02-.34.04-2.4-.34-64.36-9.61-67.98-55.98-2.07-26.51,3.43-39.27,5.45-40.57,2.01-1.29,6.6,2.01,11.96,3.45,6.4,1.71,11.87-.51,13.8.95,1.94,1.47,29.22,18.01,32.62,15.96,3.4-2.03-5.28-10-7.97-14.4-2.68-4.41-7.31-11.84-7.04-13.86.26-2.03,5.78-3.42,4.57-8.2-1.21-4.77-6-5.13-11.26-8.88-5.25-3.75-8.33-11.19-14.77-13.46-6.44-2.27-18.94.9-27,6.08-6.58,4.22-20.57,17.8-25.87,39.83-4.32,17.98-3.19,38.36,1.58,63.31-29.41-23-48.32-58.81-48.32-99.04,0-35.69,14.88-67.9,38.77-90.78C39.92,22.7.33,73.05.33,132.66c0,72.76,58.98,131.74,131.74,131.74,12.29,0,24.19-1.69,35.47-4.83-.13-.17-.2-.27-.2-.27-6.59,1.46-24.33.72-39.11-3.33-20.54-5.63-35.58-15.07-35.58-15.07,29.4,12.85,87.24,6.64,82.73,6.85-29.71,1.43-69.99-17.19-63.55-15.37,38.85,10.92,77.17,3.6,72.14,3.56Z"/>
  </g>
</svg>